<?xml version="1.0" encoding="UTF-8"?>
<svg id="Layer_1" xmlns="http://www.w3.org/2000/svg" version="1.1" viewBox="0 0 253.05 261.78">
  <!-- Generator: Adobe Illustrator 29.5.1, SVG Export Plug-In . SVG Version: 2.1.0 Build 141)  -->
  <defs>
    <style>
      .st0 {
        fill: #82acb5;
      }

      .st1 {
        fill: #02545a;
      }

      .st2 {
        fill: #007b84;
      }

      .st3 {
        fill: #84aeb6;
      }

      .st4 {
        fill: #005359;
      }

      .st5 {
        fill: #047c84;
      }
    </style>
  </defs>
  <g>
    <g>
      <circle class="st0" cx="23.5" cy="6.33" r="3.16"/>
      <circle class="st0" cx="40.67" cy="6.33" r="3.16"/>
      <circle class="st0" cx="57.84" cy="6.33" r="3.16"/>
      <circle class="st0" cx="109.35" cy="6.33" r="3.16"/>
      <circle class="st0" cx="126.53" cy="6.33" r="3.16"/>
      <circle class="st0" cx="143.7" cy="6.33" r="3.16"/>
      <circle class="st0" cx="160.87" cy="6.33" r="3.16"/>
      <circle class="st0" cx="178.04" cy="6.33" r="3.16"/>
      <circle class="st0" cx="195.21" cy="6.33" r="3.16"/>
      <circle class="st0" cx="212.38" cy="6.33" r="3.16"/>
      <circle class="st0" cx="229.55" cy="6.33" r="3.16"/>
      <circle class="st0" cx="6.33" cy="22.88" r="3.16"/>
      <circle class="st0" cx="23.5" cy="22.88" r="3.16"/>
      <circle class="st0" cx="40.67" cy="22.88" r="3.16"/>
      <circle class="st0" cx="57.84" cy="22.88" r="3.16"/>
      <circle class="st0" cx="126.53" cy="22.88" r="3.16"/>
      <circle class="st0" cx="143.7" cy="22.88" r="3.16"/>
      <circle class="st0" cx="160.87" cy="22.88" r="3.16"/>
      <circle class="st0" cx="178.04" cy="22.88" r="3.16"/>
      <circle class="st0" cx="195.21" cy="22.88" r="3.16"/>
      <circle class="st0" cx="212.38" cy="22.88" r="3.16"/>
      <circle class="st0" cx="229.55" cy="22.88" r="3.16"/>
      <circle class="st0" cx="246.72" cy="22.88" r="3.16"/>
      <circle class="st0" cx="6.33" cy="39.42" r="3.16"/>
      <circle class="st0" cx="23.5" cy="39.42" r="3.16"/>
      <circle class="st0" cx="40.67" cy="39.42" r="3.16"/>
      <circle class="st0" cx="57.84" cy="39.42" r="3.16"/>
      <circle class="st0" cx="126.53" cy="39.42" r="3.16"/>
      <circle class="st0" cx="143.7" cy="39.42" r="3.16"/>
      <circle class="st0" cx="160.87" cy="39.42" r="3.16"/>
      <circle class="st0" cx="178.04" cy="39.42" r="3.16"/>
      <circle class="st0" cx="195.21" cy="39.42" r="3.16"/>
      <circle class="st0" cx="212.38" cy="39.42" r="3.16"/>
      <circle class="st0" cx="229.55" cy="39.42" r="3.16"/>
      <circle class="st0" cx="246.72" cy="39.42" r="3.16"/>
      <circle class="st1" cx="195.21" cy="55.97" r="6.33"/>
      <circle class="st0" cx="246.72" cy="55.97" r="3.16"/>
      <circle class="st0" cx="6.33" cy="89.06" r="3.16"/>
      <circle class="st0" cx="6.33" cy="105.61" r="3.16"/>
      <circle class="st0" cx="23.5" cy="105.61" r="3.16"/>
      <circle class="st0" cx="40.67" cy="105.61" r="3.16"/>
      <circle class="st0" cx="57.84" cy="105.61" r="3.16"/>
      <circle class="st0" cx="126.53" cy="105.61" r="3.16"/>
      <circle class="st0" cx="143.7" cy="105.61" r="3.16"/>
      <circle class="st0" cx="160.87" cy="105.61" r="3.16"/>
      <circle class="st0" cx="178.04" cy="105.61" r="3.16"/>
      <circle class="st0" cx="195.21" cy="105.61" r="3.16"/>
      <circle class="st0" cx="6.33" cy="122.15" r="3.16"/>
      <circle class="st0" cx="23.5" cy="122.15" r="3.16"/>
      <circle class="st0" cx="40.67" cy="122.15" r="3.16"/>
      <circle class="st0" cx="57.84" cy="122.15" r="3.16"/>
      <circle class="st0" cx="126.53" cy="122.15" r="3.16"/>
      <circle class="st0" cx="143.7" cy="122.15" r="3.16"/>
      <circle class="st0" cx="160.87" cy="122.15" r="3.16"/>
      <circle class="st0" cx="178.04" cy="122.15" r="3.16"/>
      <circle class="st0" cx="195.21" cy="122.15" r="3.16"/>
      <circle class="st0" cx="6.33" cy="138.7" r="3.16"/>
      <circle class="st0" cx="23.5" cy="138.7" r="3.16"/>
      <circle class="st0" cx="40.67" cy="138.7" r="3.16"/>
      <circle class="st0" cx="57.84" cy="138.7" r="3.16"/>
      <circle class="st0" cx="126.53" cy="138.7" r="3.16"/>
      <circle class="st0" cx="143.7" cy="138.7" r="3.16"/>
      <circle class="st0" cx="160.87" cy="138.7" r="3.16"/>
      <circle class="st0" cx="178.04" cy="138.7" r="3.16"/>
      <circle class="st0" cx="195.21" cy="138.7" r="3.16"/>
      <circle class="st0" cx="6.33" cy="155.24" r="3.16"/>
      <circle class="st0" cx="23.5" cy="155.24" r="3.16"/>
      <circle class="st0" cx="40.67" cy="155.24" r="3.16"/>
      <circle class="st0" cx="57.84" cy="155.24" r="3.16"/>
      <circle class="st0" cx="126.53" cy="155.24" r="3.16"/>
      <circle class="st0" cx="143.7" cy="155.24" r="3.16"/>
      <circle class="st0" cx="160.87" cy="155.24" r="3.16"/>
      <circle class="st0" cx="178.04" cy="155.24" r="3.16"/>
      <circle class="st0" cx="195.21" cy="155.24" r="3.16"/>
      <circle class="st0" cx="6.33" cy="171.79" r="3.16"/>
      <circle class="st0" cx="23.5" cy="171.79" r="3.16"/>
      <circle class="st0" cx="40.67" cy="171.79" r="3.16"/>
      <circle class="st0" cx="57.84" cy="171.79" r="3.16"/>
      <circle class="st0" cx="126.53" cy="171.79" r="3.16"/>
      <circle class="st0" cx="143.7" cy="171.79" r="3.16"/>
      <circle class="st0" cx="160.87" cy="171.79" r="3.16"/>
      <circle class="st0" cx="178.04" cy="171.79" r="3.16"/>
      <circle class="st0" cx="195.21" cy="171.79" r="3.16"/>
      <circle class="st0" cx="6.33" cy="188.33" r="3.16"/>
      <circle class="st0" cx="23.5" cy="188.33" r="3.16"/>
      <circle class="st0" cx="40.67" cy="188.33" r="3.16"/>
      <circle class="st0" cx="57.84" cy="188.33" r="3.16"/>
      <circle class="st0" cx="6.33" cy="204.88" r="3.16"/>
      <circle class="st0" cx="23.5" cy="204.88" r="3.16"/>
      <circle class="st0" cx="40.67" cy="204.88" r="3.16"/>
      <circle class="st0" cx="57.84" cy="204.88" r="3.16"/>
      <circle class="st0" cx="23.5" cy="221.42" r="3.16"/>
      <circle class="st0" cx="40.67" cy="221.42" r="3.16"/>
      <circle class="st0" cx="57.84" cy="221.42" r="3.16"/>
      <circle class="st0" cx="75.01" cy="221.42" r="3.16"/>
    </g>
    <g>
      <circle class="st5" cx="75.01" cy="6.33" r="6.33"/>
      <circle class="st5" cx="92.18" cy="6.33" r="5.06"/>
      <circle class="st5" cx="75.01" cy="22.88" r="6.33"/>
      <circle class="st5" cx="92.18" cy="22.88" r="6.33"/>
      <circle class="st5" cx="109.35" cy="22.88" r="5.06"/>
      <circle class="st5" cx="75.01" cy="39.42" r="6.33"/>
      <circle class="st5" cx="92.18" cy="39.42" r="6.33"/>
      <circle class="st5" cx="109.35" cy="39.42" r="6.33"/>
      <circle class="st5" cx="6.33" cy="55.97" r="6.33"/>
      <circle class="st5" cx="23.5" cy="55.97" r="6.33"/>
      <circle class="st5" cx="40.67" cy="55.97" r="6.33"/>
      <circle class="st5" cx="57.84" cy="55.97" r="6.33"/>
      <circle class="st5" cx="75.01" cy="55.97" r="6.33"/>
      <circle class="st5" cx="92.18" cy="55.97" r="6.33"/>
      <circle class="st5" cx="109.35" cy="55.97" r="6.33"/>
      <circle class="st5" cx="126.53" cy="55.97" r="6.33"/>
      <circle class="st5" cx="143.7" cy="55.97" r="6.33"/>
      <circle class="st5" cx="160.89" cy="55.98" r="6.33" transform="translate(79.86 205.82) rotate(-80.78)"/>
      <circle class="st5" cx="178.04" cy="55.97" r="6.33"/>
      <circle class="st5" cx="6.33" cy="72.51" r="5.06"/>
      <circle class="st5" cx="23.5" cy="72.51" r="6.33"/>
      <circle class="st5" cx="40.67" cy="72.51" r="6.33"/>
      <circle class="st5" cx="57.84" cy="72.51" r="6.33"/>
      <circle class="st5" cx="75.01" cy="72.51" r="6.33"/>
      <circle class="st5" cx="92.18" cy="72.51" r="6.33"/>
      <circle class="st5" cx="109.35" cy="72.51" r="6.33"/>
      <circle class="st5" cx="126.53" cy="72.51" r="6.33"/>
      <circle class="st5" cx="143.7" cy="72.51" r="6.33"/>
      <circle class="st5" cx="160.87" cy="72.51" r="6.33"/>
      <circle class="st5" cx="178.04" cy="72.51" r="5.06"/>
      <circle class="st5" cx="23.5" cy="89.06" r="5.06"/>
      <circle class="st5" cx="40.67" cy="89.06" r="6.33"/>
      <circle class="st5" cx="57.84" cy="89.06" r="6.33"/>
      <circle class="st5" cx="75.01" cy="89.06" r="6.33"/>
      <circle class="st5" cx="92.18" cy="89.06" r="6.33"/>
      <circle class="st5" cx="109.35" cy="89.06" r="6.33"/>
      <circle class="st5" cx="126.53" cy="89.06" r="6.33"/>
      <circle class="st5" cx="143.7" cy="89.06" r="6.33"/>
      <circle class="st5" cx="160.87" cy="89.06" r="5.06"/>
      <circle class="st5" cx="75.01" cy="105.61" r="6.33"/>
      <circle class="st5" cx="92.18" cy="105.61" r="6.33"/>
      <circle class="st5" cx="109.35" cy="105.61" r="6.33"/>
      <circle class="st5" cx="75.01" cy="122.15" r="6.33"/>
      <circle class="st5" cx="92.18" cy="122.15" r="6.33"/>
      <circle class="st5" cx="109.35" cy="122.15" r="6.33"/>
      <circle class="st5" cx="75.01" cy="138.7" r="6.33"/>
      <circle class="st5" cx="92.18" cy="138.7" r="6.33"/>
      <circle class="st5" cx="109.35" cy="138.7" r="6.33"/>
      <circle class="st5" cx="75.01" cy="155.24" r="6.33"/>
      <circle class="st5" cx="92.18" cy="155.24" r="6.33"/>
      <circle class="st5" cx="109.35" cy="155.24" r="6.33"/>
      <circle class="st5" cx="75.01" cy="171.79" r="6.33"/>
      <circle class="st5" cx="92.18" cy="171.79" r="6.33"/>
      <circle class="st5" cx="109.35" cy="171.79" r="6.33"/>
      <circle class="st5" cx="75.01" cy="188.33" r="6.33"/>
      <circle class="st5" cx="92.18" cy="188.33" r="6.33"/>
      <circle class="st5" cx="109.35" cy="188.33" r="6.33"/>
      <circle class="st5" cx="126.53" cy="188.33" r="6.33"/>
      <circle class="st5" cx="143.7" cy="188.33" r="6.33"/>
      <circle class="st5" cx="160.87" cy="188.33" r="5.06"/>
      <circle class="st5" cx="75.01" cy="204.88" r="5.06"/>
      <circle class="st5" cx="92.18" cy="204.88" r="6.33"/>
      <circle class="st5" cx="109.35" cy="204.88" r="6.33"/>
      <circle class="st5" cx="126.53" cy="204.88" r="6.33"/>
      <circle class="st5" cx="143.7" cy="204.88" r="6.33"/>
      <circle class="st5" cx="160.87" cy="204.88" r="6.33"/>
      <circle class="st5" cx="92.18" cy="221.42" r="5.06"/>
      <circle class="st5" cx="109.35" cy="221.42" r="6.33"/>
      <circle class="st5" cx="126.53" cy="221.42" r="6.33"/>
      <circle class="st5" cx="143.7" cy="221.42" r="6.33"/>
      <circle class="st5" cx="160.87" cy="221.42" r="6.33"/>
      <circle class="st5" cx="178.04" cy="221.42" r="5.06"/>
    </g>
    <g>
      <circle class="st1" cx="212.38" cy="55.97" r="6.33" transform="translate(79.4 230.76) rotate(-67.5)"/>
      <circle class="st1" cx="229.55" cy="55.97" r="5.06"/>
      <circle class="st1" cx="195.21" cy="72.51" r="5.06"/>
      <circle class="st1" cx="212.38" cy="72.51" r="6.33" transform="translate(64.12 240.98) rotate(-67.5)"/>
      <circle class="st1" cx="229.55" cy="72.51" r="6.33"/>
      <circle class="st1" cx="246.72" cy="72.51" r="5.06"/>
      <circle class="st1" cx="178.04" cy="89.06" r="3.16"/>
      <circle class="st1" cx="195.21" cy="89.06" r="6.33"/>
      <circle class="st1" cx="212.38" cy="89.06" r="6.33" transform="translate(84.76 280.77) rotate(-79.1)"/>
      <circle class="st1" cx="229.55" cy="89.06" r="6.33"/>
      <circle class="st1" cx="246.72" cy="89.06" r="6.33"/>
      <circle class="st1" cx="212.38" cy="105.61" r="6.33" transform="translate(74.11 298.33) rotate(-80.78)"/>
      <circle class="st1" cx="229.55" cy="105.61" r="6.33"/>
      <circle class="st1" cx="246.72" cy="105.61" r="6.33"/>
      <circle class="st1" cx="212.38" cy="122.15" r="6.33" transform="translate(57.79 312.22) rotate(-80.78)"/>
      <circle class="st1" cx="229.55" cy="122.15" r="6.33"/>
      <circle class="st1" cx="246.72" cy="122.15" r="6.33"/>
      <circle class="st1" cx="212.38" cy="138.7" r="6.33" transform="translate(41.45 326.12) rotate(-80.78)"/>
      <circle class="st1" cx="229.55" cy="138.7" r="6.33"/>
      <circle class="st1" cx="246.72" cy="138.7" r="6.33"/>
      <circle class="st1" cx="212.38" cy="155.24" r="6.33" transform="translate(25.13 340.01) rotate(-80.78)"/>
      <circle class="st1" cx="229.55" cy="155.24" r="6.33"/>
      <circle class="st1" cx="246.72" cy="155.24" r="6.33"/>
      <circle class="st1" cx="212.38" cy="171.79" r="6.33" transform="translate(8.79 353.91) rotate(-80.78)"/>
      <circle class="st1" cx="229.55" cy="171.79" r="6.33"/>
      <circle class="st1" cx="246.72" cy="171.79" r="6.33"/>
      <circle class="st1" cx="178.04" cy="188.33" r="6.33"/>
      <circle class="st1" cx="195.21" cy="188.33" r="6.33"/>
      <circle class="st1" cx="212.38" cy="188.33" r="6.33" transform="translate(-7.54 367.8) rotate(-80.78)"/>
      <circle class="st1" cx="229.55" cy="188.33" r="6.33"/>
      <circle class="st1" cx="246.72" cy="188.33" r="6.33"/>
      <circle class="st1" cx="178.04" cy="204.88" r="5.06"/>
      <circle class="st1" cx="195.21" cy="204.88" r="6.33"/>
      <circle class="st1" cx="212.38" cy="204.88" r="6.33" transform="translate(-23.87 381.7) rotate(-80.78)"/>
      <circle class="st1" cx="229.55" cy="204.88" r="6.33"/>
      <circle class="st1" cx="246.72" cy="204.88" r="5.06"/>
      <circle class="st1" cx="195.21" cy="221.42" r="6.33"/>
      <circle class="st1" cx="212.38" cy="221.42" r="6.33" transform="translate(-40.2 395.59) rotate(-80.78)"/>
      <circle class="st1" cx="229.55" cy="221.42" r="5.06"/>
    </g>
  </g>
  <g>
    <path class="st2" d="M21.62,240.12c0,.74-.14,1.44-.42,2.1s-.66,1.23-1.16,1.73-1.06.89-1.71,1.18-1.35.43-2.09.43h-2.69v16.21c-.74,0-1.44-.14-2.1-.43-.66-.29-1.23-.68-1.73-1.18s-.88-1.07-1.16-1.73-.42-1.36-.42-2.1v-10.76h-2.72c-.74,0-1.44-.14-2.1-.43s-1.23-.68-1.71-1.18-.87-1.07-1.16-1.73-.43-1.36-.43-2.1h21.62-.02Z"/>
    <path class="st2" d="M39.65,256.8c.66.29,1.23.68,1.73,1.16.49.49.88,1.06,1.16,1.71.28.66.42,1.36.42,2.1h-16.21c-.74,0-1.44-.14-2.1-.42s-1.23-.66-1.73-1.16-.88-1.07-1.16-1.73-.42-1.36-.42-2.1v-10.8c0-.74.14-1.44.42-2.1s.66-1.23,1.16-1.73,1.07-.89,1.73-1.18c.66-.29,1.36-.43,2.1-.43h16.21c0,.74-.14,1.44-.42,2.1s-.66,1.23-1.16,1.73-1.07.89-1.73,1.18-1.36.43-2.1.43h-9.46c-.35,0-.61.07-.79.22-.18.14-.3.3-.39.47-.09.2-.14.42-.16.65v1.36h9.46c0,.66-.12,1.28-.37,1.86s-.59,1.08-1.02,1.5-.94.76-1.52,1-1.2.37-1.86.37h-4.7v2.01c0,.35.07.62.2.8s.28.32.45.4c.2.11.43.16.68.16h9.46c.74,0,1.44.14,2.1.43h.02Z"/>
    <path class="st2" d="M65.69,249.62c0,.66-.11,1.28-.34,1.87-.23.58-.53,1.12-.91,1.6-.38.47-.84.87-1.37,1.19-.54.32-1.12.54-1.73.66l4.36,6.22c-.76.41-1.6.62-2.5.62s-1.77-.2-2.53-.62c-.76-.41-1.39-.98-1.88-1.7l-3.13-4.45h-6.15v1.36c0,.74-.14,1.44-.43,2.1s-.68,1.23-1.16,1.73c-.49.49-1.06.88-1.71,1.16-.66.28-1.36.42-2.1.42v-19.61c0-.56.2-1.04.58-1.44.39-.4.87-.6,1.42-.6h14.2c.74,0,1.44.14,2.1.43s1.23.68,1.73,1.18.88,1.07,1.16,1.73.42,1.36.42,2.1v4.05h-.03ZM58.92,250.27c.35,0,.61-.07.77-.2s.3-.28.4-.45c.09-.2.14-.43.18-.68v-2.04c0-.33-.07-.58-.22-.77-.14-.18-.3-.32-.47-.4-.2-.09-.43-.13-.68-.16h-9.43v4.7h9.45Z"/>
    <path class="st2" d="M88.86,249.62c0,.66-.11,1.28-.34,1.87-.23.58-.53,1.12-.91,1.6-.38.47-.84.87-1.37,1.19-.54.32-1.12.54-1.73.66l4.36,6.22c-.76.41-1.6.62-2.5.62s-1.77-.2-2.53-.62c-.76-.41-1.39-.98-1.88-1.7l-3.13-4.45h-6.15v1.36c0,.74-.14,1.44-.43,2.1s-.68,1.23-1.16,1.73c-.49.49-1.06.88-1.71,1.16-.66.28-1.36.42-2.1.42v-19.61c0-.56.2-1.04.58-1.44.39-.4.87-.6,1.42-.6h14.2c.74,0,1.44.14,2.1.43s1.23.68,1.73,1.18.88,1.07,1.16,1.73.42,1.36.42,2.1v4.05h-.03ZM82.09,250.27c.35,0,.61-.07.77-.2s.3-.28.4-.45c.09-.2.14-.43.18-.68v-2.04c0-.33-.07-.58-.22-.77-.14-.18-.3-.32-.47-.4-.2-.09-.43-.13-.68-.16h-9.43v4.7h9.45Z"/>
    <path class="st2" d="M112.02,261.77c-.74,0-1.44-.14-2.1-.42s-1.23-.66-1.71-1.16c-.49-.49-.87-1.07-1.16-1.73s-.43-1.36-.43-2.1v-1.36h-10.8v1.36c0,.74-.14,1.44-.43,2.1s-.68,1.23-1.16,1.73c-.49.49-1.06.88-1.71,1.16-.66.28-1.36.42-2.1.42v-16.21c0-.74.14-1.44.43-2.1s.68-1.23,1.16-1.73,1.06-.89,1.71-1.18,1.36-.43,2.1-.43h10.8c.74,0,1.44.14,2.1.43s1.23.68,1.73,1.18.88,1.07,1.16,1.73.42,1.36.42,2.1v16.21h-.01ZM106.61,250.27v-3.37c0-.33-.07-.58-.22-.77-.14-.18-.3-.32-.47-.4-.2-.09-.42-.13-.65-.16h-8.1c-.33,0-.58.06-.76.18s-.31.26-.4.42-.15.3-.17.45-.03.24-.03.28v3.37h10.8Z"/>
    <path class="st3" d="M113.57,254.97c0-.56.11-1.08.32-1.56s.51-.91.87-1.29.79-.66,1.29-.87,1.02-.31,1.58-.31h8.1c0,.56-.11,1.08-.32,1.56s-.51.91-.87,1.27-.79.65-1.29.87c-.49.22-1.02.32-1.58.32h-8.1Z"/>
    <path class="st4" d="M148.89,246.89c0,.81-.16,1.56-.48,2.27s-.77,1.31-1.35,1.78c.58.49,1.02,1.09,1.35,1.79s.48,1.45.48,2.26v1.36c0,.74-.14,1.44-.42,2.1s-.66,1.23-1.16,1.73-1.07.88-1.73,1.16-1.36.42-2.1.42h-14.2c-.56,0-1.03-.2-1.42-.59s-.58-.87-.58-1.42v-17.6c0-.56.2-1.04.58-1.44.39-.4.87-.6,1.42-.6h14.2c.74,0,1.44.14,2.1.43s1.23.68,1.73,1.18.88,1.07,1.16,1.73.42,1.36.42,2.1v1.33h0ZM132.68,245.57v3.37h9.43c.35,0,.61-.07.77-.22s.3-.3.4-.47c.09-.2.14-.43.18-.68v-.68c0-.33-.07-.58-.22-.77-.14-.18-.3-.32-.47-.4-.2-.09-.43-.13-.68-.16h-9.43.02ZM142.11,256.36c.35,0,.61-.07.77-.22s.3-.3.4-.47c.09-.2.14-.43.18-.68v-.65c0-.35-.07-.61-.22-.77-.14-.16-.3-.3-.47-.4-.2-.09-.43-.14-.68-.18h-9.43v3.37h9.45Z"/>
    <path class="st4" d="M163.12,252v9.77c-.74,0-1.44-.14-2.09-.43s-1.22-.68-1.71-1.16-.88-1.06-1.16-1.71-.42-1.36-.42-2.1v-4.36l-9.4-10.33c.47-.47,1.02-.85,1.64-1.13s1.29-.42,2.01-.42,1.43.15,2.07.45,1.2.7,1.67,1.22l4.7,5.16,4.67-5.16c.47-.52,1.04-.93,1.69-1.22.65-.3,1.35-.45,2.09-.45s1.39.14,2.01.42,1.16.66,1.64,1.13l-9.4,10.33h-.01Z"/>
    <path class="st4" d="M194.44,240.12c0,.74-.14,1.44-.42,2.1s-.66,1.23-1.16,1.73-1.06.89-1.71,1.18-1.35.43-2.09.43h-2.69v16.21c-.74,0-1.44-.14-2.1-.43-.66-.29-1.23-.68-1.73-1.18s-.88-1.07-1.16-1.73-.42-1.36-.42-2.1v-10.76h-2.72c-.74,0-1.44-.14-2.1-.43s-1.23-.68-1.71-1.18-.87-1.07-1.16-1.73-.43-1.36-.43-2.1h21.62-.02Z"/>
    <path class="st4" d="M212.38,256.8c.66.29,1.23.68,1.73,1.16.49.49.88,1.06,1.16,1.71.28.66.42,1.36.42,2.1h-16.21c-.74,0-1.44-.14-2.1-.42s-1.23-.66-1.73-1.16-.88-1.07-1.16-1.73-.42-1.36-.42-2.1v-10.8c0-.74.14-1.44.42-2.1s.66-1.23,1.16-1.73,1.07-.89,1.73-1.18c.66-.29,1.36-.43,2.1-.43h16.21c0,.74-.14,1.44-.42,2.1s-.66,1.23-1.16,1.73-1.07.89-1.73,1.18-1.36.43-2.1.43h-9.46c-.35,0-.61.07-.79.22s-.3.3-.39.47c-.09.2-.14.42-.16.65v1.36h9.46c0,.66-.12,1.28-.37,1.86s-.59,1.08-1.02,1.5-.94.76-1.52,1-1.2.37-1.86.37h-4.7v2.01c0,.35.07.62.2.8s.28.32.45.4c.2.11.43.16.68.16h9.46c.74,0,1.44.14,2.1.43h.02Z"/>
    <path class="st4" d="M222.92,258.9c0,.39-.07.76-.22,1.12-.14.35-.35.66-.6.91s-.56.46-.91.6-.72.22-1.12.22-.76-.07-1.12-.22c-.35-.14-.66-.35-.91-.6s-.46-.56-.6-.91c-.14-.35-.22-.72-.22-1.12s.07-.76.22-1.12c.14-.35.35-.66.6-.91s.56-.46.91-.6.72-.22,1.12-.22.76.07,1.12.22.66.35.91.6.46.56.6.91.22.72.22,1.12Z"/>
    <path class="st4" d="M246.09,261.77c-.74,0-1.44-.14-2.1-.42s-1.23-.66-1.71-1.16c-.49-.49-.87-1.07-1.16-1.73s-.43-1.36-.43-2.1v-1.36h-10.8v1.36c0,.74-.14,1.44-.43,2.1s-.68,1.23-1.16,1.73c-.49.49-1.06.88-1.71,1.16-.66.28-1.36.42-2.1.42v-16.21c0-.74.14-1.44.43-2.1s.68-1.23,1.16-1.73,1.06-.89,1.71-1.18,1.36-.43,2.1-.43h10.8c.74,0,1.44.14,2.1.43s1.23.68,1.73,1.18.88,1.07,1.16,1.73.42,1.36.42,2.1v16.21h0ZM240.68,250.27v-3.37c0-.33-.07-.58-.22-.77-.14-.18-.3-.32-.47-.4-.2-.09-.42-.13-.65-.16h-8.1c-.33,0-.58.06-.76.18s-.31.26-.4.42-.15.3-.17.45-.03.24-.03.28v3.37h10.8Z"/>
    <path class="st4" d="M253.05,256.36c0,.74-.14,1.44-.42,2.1-.28.66-.66,1.23-1.14,1.73s-1.06.88-1.71,1.16c-.66.28-1.37.42-2.13.42v-16.21c0-.74.14-1.44.43-2.1s.68-1.23,1.16-1.73,1.06-.89,1.71-1.18,1.36-.43,2.1-.43v16.24h0Z"/>
  </g>
</svg>

